<svg class="svg-icon" style="width: 1em; height: 1em;vertical-align: middle;fill: currentColor;overflow: hidden;" viewBox="0 0 1024 1024" version="1.1" xmlns="http://www.w3.org/2000/svg"><path d="M934.514286 141.028571l-51.542857-51.542857a9.177143 9.177143 0 0 0-12.914286 0L690.057143 269.6l-62.514286-62.514286a9.074286 9.074286 0 0 0-15.428571 5.371429L585.257143 428.571429c-0.685714 5.942857 4.228571 10.857143 10.171428 10.171428l216.228572-26.857143c7.542857-0.914286 10.628571-10.057143 5.371428-15.428571l-62.514285-62.514286 180.114285-180.114286c3.428571-3.428571 3.428571-9.257143-0.114285-12.8zM428.571429 585.257143l-216.228572 26.857143c-7.542857 0.914286-10.628571 10.171429-5.371428 15.428571l62.514285 62.514286-180 180a9.177143 9.177143 0 0 0 0 12.914286l51.542857 51.542857c3.542857 3.542857 9.371429 3.542857 12.914286 0l180.114286-180.114286 62.514286 62.514286a9.074286 9.074286 0 0 0 15.428571-5.371429L438.742857 595.428571a9.028571 9.028571 0 0 0-10.171428-10.171428z" fill="#7dd3fc"  /></svg>